<?xml version="1.0" encoding="utf-8"?>
<!-- Generator: Adobe Illustrator 25.3.1, SVG Export Plug-In . SVG Version: 6.00 Build 0)  -->
<svg version="1.1" id="Layer_1" xmlns="http://www.w3.org/2000/svg" xmlns:xlink="http://www.w3.org/1999/xlink" x="0px" y="0px"
	 viewBox="0 0 372.9 72.2" style="enable-background:new 0 0 372.9 72.2;" xml:space="preserve">
<style type="text/css">
	.st0{fill:#FFFFFF;}
</style>
<g>
	<polygon class="st0" points="37.7,31.2 31.6,27.7 24.1,32 24.1,54.1 31.6,58.4 51,47.3 45.1,43.7 31.6,51.4 30.1,50.6 30.1,35.5 	
		"/>
	<polygon class="st0" points="43.1,13.5 44.4,7.3 31.6,0 0,18 0,54.2 6,57.6 6,21.5 31.6,6.9 	"/>
	<polygon class="st0" points="57.2,21.6 57.2,50.7 31.6,65.3 18,57.5 18,28.5 31.6,20.8 45.2,28.5 51.2,25.1 51.2,25 31.6,13.9 
		12,25 12,61 31.6,72.2 63.2,54.2 63.2,18.1 	"/>
	<polygon class="st0" points="77.4,19.5 102.6,19.5 102.6,25.4 84.3,25.4 84.3,35.2 100.1,35.2 100.1,41.1 84.3,41.1 84.3,55.1 
		77.4,55.1 	"/>
	<rect x="106.9" y="19.5" class="st0" width="6.9" height="35.5"/>
	<path class="st0" d="M148.6,43.3v11.8h-6.9V44.9l-3-3.4h-11.1v13.6h-6.9V19.5h22.4l5.3,5.5v10.7l-3.4,3.5L148.6,43.3z M127.6,35.8
		h12.2l1.8-1.8v-6.9l-1.8-1.8h-12.3L127.6,35.8z"/>
	<polygon class="st0" points="155,19.5 161.4,19.5 172,42.5 182.6,19.5 189.1,19.5 189.1,55.1 182.4,55.1 182.4,33.4 174.4,50.1 
		169.9,50.1 161.9,33.4 161.9,55.1 155,55.1 	"/>
	<path class="st0" d="M205.6,19.5h6.3l13,35.5H218l-2.9-7.9h-12.6l-2.9,7.9h-7L205.6,19.5z M213.5,41.5l-4.7-13.3l-4.6,13.4
		L213.5,41.5z"/>
	<polygon class="st0" points="228.2,49.2 228.2,25.4 234,19.5 251.4,19.5 257.1,25.3 257.1,30.6 250.2,30.6 250.2,27.8 247.8,25.4 
		237.7,25.4 235,28.1 235,46.8 237.7,49.5 247.8,49.5 250.2,47.1 250.2,43.9 257.1,43.9 257.1,49.2 251.4,55 234,55 	"/>
	<polygon class="st0" points="261.9,19.5 268.8,19.5 268.8,34.4 283.9,34.4 283.9,19.5 290.8,19.5 290.8,55.1 283.9,55.1 
		283.9,40.3 268.8,40.3 268.8,55.1 261.9,55.1 	"/>
	<path class="st0" d="M307.4,19.5h6.3l13,35.5h-7l-2.9-7.9h-12.5l-2.9,7.9h-7L307.4,19.5z M315.2,41.5l-4.7-13.3l-4.6,13.4
		L315.2,41.5z"/>
	<rect x="330.4" y="19.5" class="st0" width="6.9" height="35.5"/>
	<polygon class="st0" points="344.2,19.5 350.4,19.5 366.2,43.6 366.2,19.5 372.9,19.5 372.9,55.1 366.7,55.1 350.9,31 350.9,55.1 
		344.2,55.1 	"/>
</g>
</svg>
